<svg width="100" height="76" viewBox="0 0 100 76" fill="none" xmlns="http://www.w3.org/2000/svg">
<rect width="100" height="75.6097" rx="20" fill="#CC2E43"/>
<g clip-path="url(#clip0_505_1613)">
<path fill-rule="evenodd" clip-rule="evenodd" d="M38.254 22.518C51.736 25.7 60.832 32.022 65.716 49.534L26 62L38.254 22.518ZM35.996 48.002C38.202 48.002 39.994 49.798 39.994 52.002C39.994 54.21 38.202 56.002 35.996 56.002C33.788 56.002 31.998 54.21 31.998 52.002C31.998 49.798 33.788 48.002 35.996 48.002ZM45.522 42.224C47.608 42.944 48.714 45.224 47.994 47.31C47.272 49.396 44.992 50.504 42.908 49.782C42.908 49.782 41.678 49.348 42.072 48.216C42.462 47.084 43.692 47.514 43.692 47.514C44.526 47.804 45.438 47.362 45.728 46.528C46.014 45.69 45.572 44.78 44.738 44.488C44.738 44.488 43.48 44.154 43.904 42.934C44.288 41.826 45.522 42.224 45.522 42.224ZM40.278 19.646C37.508 18.762 38.418 14 41.772 14L41.994 14.008C58.606 16.692 70.004 29.352 73.984 46.004L74 46.31C74 49.398 69.244 50.372 68.22 47.756C63.912 32.15 54.566 23.04 40.278 19.646ZM54.992 42.002C56.646 42.002 57.99 43.348 57.99 45.002C57.99 46.66 56.646 48.002 54.992 48.002C53.334 48.002 51.99 46.66 51.99 45.002C51.99 43.348 53.334 42.002 54.992 42.002ZM39.128 41.898C36.978 41.39 35.646 39.234 36.154 37.086C36.66 34.938 38.816 33.604 40.962 34.112C40.962 34.112 42.23 34.418 41.956 35.586C41.68 36.754 40.414 36.448 40.414 36.448C39.554 36.244 38.692 36.778 38.49 37.638C38.286 38.496 38.82 39.36 39.678 39.562C39.678 39.562 40.962 39.768 40.666 41.026C40.396 42.168 39.128 41.898 39.128 41.898ZM49.992 30.006C52.198 30.006 53.99 31.798 53.99 34.004C53.99 36.212 52.198 38.004 49.992 38.004C47.784 38.004 45.992 36.212 45.992 34.004C45.992 31.798 47.784 30.006 49.992 30.006Z" fill="white" fill-opacity="0.55"/>
</g>
<defs>
<clipPath id="clip0_505_1613">
<rect width="48" height="48" fill="white" transform="translate(26 14)"/>
</clipPath>
</defs>
</svg>
