<svg width="70" height="61" viewBox="0 0 70 61" fill="none" xmlns="http://www.w3.org/2000/svg">
  <g clip-path="url(#clip0_519_503)">
    <path d="M33.0429 59.3114C32.5033 60.2678 31.6721 60.7726 30.8292 60.7726C30.2634 60.7726 29.6947 60.5449 29.2017 60.0781C27.9797 58.9052 27.7171 56.6773 28.6125 55.087L31.7538 49.5607C32.6521 47.978 34.3672 47.6326 35.5892 48.8054C36.8172 49.9668 37.0796 52.2024 36.1755 53.7889L33.0429 59.3114ZM30.6367 48.5359C31.5351 46.9494 31.2695 44.7138 30.0504 43.541C28.8224 42.372 27.1105 42.7212 26.2092 44.3115L23.0797 49.8112C22.1784 51.4015 22.4466 53.6409 23.6687 54.8099C24.885 55.9751 26.6058 55.6373 27.5041 54.0432L30.6367 48.5359ZM25.095 43.2677C25.9963 41.685 25.7279 39.4457 24.5029 38.2767C23.2838 37.1114 21.5658 37.4568 20.6703 39.0433L17.5117 44.5886C16.6134 46.1789 16.9021 48.3651 18.1213 49.5379C19.3492 50.7069 21.0379 50.4071 21.9362 48.8168L25.095 43.2677ZM19.5591 38.0072C20.4575 36.4169 20.1979 34.1851 18.9671 33.0161C17.745 31.8433 16.03 32.1887 15.1316 33.779L11.9962 39.2863C11.0978 40.8728 11.3633 43.1121 12.5854 44.2774C13.8075 45.4426 15.5254 45.1048 16.4208 43.5107L19.5591 38.0072ZM70 5.98069C70 5.98069 65.4646 7.12314 62.2213 7.79874C55.9621 9.10439 50.1345 6.21981 43.6683 1.87015C42.3704 1.00098 40.8741 0.0976562 39.4158 0.0976562C38.0712 0.0976562 36.7529 0.890917 35.6475 2.52298C31.6633 8.39463 29.3475 13.5869 24.608 17.1888C22.2717 18.9651 25.0162 24.5293 30.0329 22.2406C32.5937 21.0716 35.0962 18.8437 37.9254 15.8756C40.1479 13.5413 41.4838 13.8867 43.4059 16.388C47.0167 21.0868 59.1675 36.6977 59.1675 36.6977C63.0088 33.6158 66.2317 31.718 69.9971 29.8962L70 5.98069ZM39.305 54.0394C38.8442 55.7815 37.5025 57.8387 36.5254 59.5619C37.3917 60.4576 38.2958 60.8296 39.095 60.8296C41.1862 60.8296 42.56 58.2828 40.6758 55.8271L39.305 54.0394ZM58.2808 40.8956C55.16 36.8913 44.4792 23.1819 41.3555 19.2118C40.8742 18.6007 40.1274 18.5286 39.582 19.0448C37.7183 20.8059 33.5096 24.6811 30.9955 25.8312C26.0809 28.0705 21.91 24.9886 21.0146 20.6731C20.4546 17.9745 21.2859 15.3252 23.135 13.9209C26.075 11.6853 27.9679 8.70207 30.2983 4.95211C28.2712 2.90633 26.3608 2.1738 24.4912 2.1738C19.5153 2.1738 14.8166 7.35846 8.92784 6.84607C4.92326 6.50068 0 5.31268 0 5.31268V29.3496C4.305 30.568 7.16037 31.1107 11.4333 33.9004L12.7809 31.532C13.8426 29.6495 15.5487 28.526 17.3425 28.526C19.88 28.526 22.0734 30.7198 22.7704 33.7942C25.5442 33.7942 27.6325 36.0791 28.3063 39.0585C30.7155 38.9409 33.0925 41.0284 33.8391 44.3153C37.2546 44.3153 39.7221 47.8072 39.6171 51.9329L43.0237 56.366C44.0941 57.7628 45.8324 57.759 46.9057 56.366C47.9791 54.9693 47.9791 52.7072 46.9057 51.3104L41.9883 44.9074C41.3467 44.0724 42.3179 42.8085 42.9596 43.6435L48.8862 51.3598C49.9595 52.7565 51.6949 52.7565 52.7683 51.3598C53.8416 49.963 53.8416 47.7047 52.7683 46.308L45.4738 36.8116C44.8292 35.9842 45.8034 34.7127 46.445 35.5477L54.3201 45.7994C55.3934 47.1961 57.1288 47.1961 58.2021 45.7994C59.2463 44.4444 59.255 42.2961 58.2808 40.8956Z" fill="black" fill-opacity="0.4"/>
  </g>
  <defs>
    <clipPath id="clip0_519_503">
      <rect width="70" height="60.7319" fill="white" transform="translate(0 0.0976562)"/>
    </clipPath>
  </defs>
</svg>