<svg width="60" height="60" viewBox="0 0 60 60" fill="none" xmlns="http://www.w3.org/2000/svg">
    <path fill-rule="evenodd" clip-rule="evenodd" d="M17.5 15V10C17.5 7.24 19.74 5 22.5 5H37.5C40.26 5 42.5 7.24 42.5 10V15H55C57.76 15 60 17.24 60 20V50C60 52.76 57.76 55 55 55H5C2.24 55 0 52.76 0 50V20C0 17.24 2.24 15 5 15H17.5ZM32.5 32.5V25H27.5V32.5H20V37.5H27.5V45H32.5V37.5H40V32.5H32.5ZM36.25 10H23.75C23.06 10 22.5 10.56 22.5 11.25V15H37.5V11.25C37.5 10.56 36.94 10 36.25 10Z" fill="white" fill-opacity="0.6"/>
</svg>