<svg width="48" height="48" viewBox="0 0 48 48" fill="none" xmlns="http://www.w3.org/2000/svg">
    <g clip-path="url(#clip0_505_1616)">
    <path fill-rule="evenodd" clip-rule="evenodd" d="M12.254 8.518C25.736 11.7 34.832 18.022 39.716 35.534L0 48L12.254 8.518ZM9.996 34.002C12.202 34.002 13.994 35.798 13.994 38.002C13.994 40.21 12.202 42.002 9.996 42.002C7.788 42.002 5.998 40.21 5.998 38.002C5.998 35.798 7.788 34.002 9.996 34.002ZM19.522 28.224C21.608 28.944 22.714 31.224 21.994 33.31C21.272 35.396 18.992 36.504 16.908 35.782C16.908 35.782 15.678 35.348 16.072 34.216C16.462 33.084 17.692 33.514 17.692 33.514C18.526 33.804 19.438 33.362 19.728 32.528C20.014 31.69 19.572 30.78 18.738 30.488C18.738 30.488 17.48 30.154 17.904 28.934C18.288 27.826 19.522 28.224 19.522 28.224ZM14.278 5.646C11.508 4.762 12.418 0 15.772 0L15.994 0.008C32.606 2.692 44.004 15.352 47.984 32.004L48 32.31C48 35.398 43.244 36.372 42.22 33.756C37.912 18.15 28.566 9.04 14.278 5.646ZM28.992 28.002C30.646 28.002 31.99 29.348 31.99 31.002C31.99 32.66 30.646 34.002 28.992 34.002C27.334 34.002 25.99 32.66 25.99 31.002C25.99 29.348 27.334 28.002 28.992 28.002ZM13.128 27.898C10.978 27.39 9.646 25.234 10.154 23.086C10.66 20.938 12.816 19.604 14.962 20.112C14.962 20.112 16.23 20.418 15.956 21.586C15.68 22.754 14.414 22.448 14.414 22.448C13.554 22.244 12.692 22.778 12.49 23.638C12.286 24.496 12.82 25.36 13.678 25.562C13.678 25.562 14.962 25.768 14.666 27.026C14.396 28.168 13.128 27.898 13.128 27.898ZM23.992 16.006C26.198 16.006 27.99 17.798 27.99 20.004C27.99 22.212 26.198 24.004 23.992 24.004C21.784 24.004 19.992 22.212 19.992 20.004C19.992 17.798 21.784 16.006 23.992 16.006Z" fill="white" fill-opacity="0.55"/>
    </g>
    <defs>
    <clipPath id="clip0_505_1616">
        <rect width="48" height="48" fill="white"/>
    </clipPath>
    </defs>
</svg>