<svg width="70" height="69" viewBox="0 0 70 69" fill="none" xmlns="http://www.w3.org/2000/svg">
    <g clip-path="url(#clip0_505_1566)">
    <path d="M62.7125 31.7345C58.8795 30.6248 57.3486 30.2036 52.6051 29.1138C52.6051 29.1138 45.8356 22.4012 44.5466 21.1008C42.9303 19.4732 41.5787 17.7317 36.1551 17.7317H13.6925C12.2385 17.7317 11.5982 19.2882 13.4934 20.5772C11.382 22.2902 8.88644 24.504 7.06815 26.3451C2.98482 30.4853 0.853516 33.1317 0.853516 38.4528C0.853516 43.461 3.81856 49.0325 9.88522 49.0325H9.91368C11.0889 52.339 14.2161 54.7236 17.9267 54.7236C21.6373 54.7236 24.7645 52.339 25.9397 49.0325H44.0572C45.2324 52.339 48.3596 54.7236 52.0702 54.7236C55.7808 54.7236 58.908 52.339 60.0832 49.0325H62.0324C67.7064 49.0325 69.1462 43.9788 69.1462 40.0264C69.1462 34.2187 65.9507 32.6736 62.7125 31.7345ZM17.9267 49.6016C16.0429 49.6016 14.5121 48.0707 14.5121 46.187C14.5121 44.3032 16.0429 42.7723 17.9267 42.7723C19.8104 42.7723 21.3413 44.3032 21.3413 46.187C21.3413 48.0707 19.8104 49.6016 17.9267 49.6016ZM28.1023 31.9593C25.0547 31.9593 18.1429 31.6577 13.2515 29.8252C14.8962 27.691 16.0913 26.3479 16.8653 25.4545C17.7702 24.4073 19.3495 23.4227 21.3072 23.4227H28.1023V31.9593ZM30.9478 23.4227H36.1694C38.6791 23.4227 40.2328 24.8256 41.923 26.5671C43.2092 27.8931 46.8515 31.9593 46.8515 31.9593H30.9507L30.9478 23.4227ZM52.073 49.6016C50.1893 49.6016 48.6584 48.0707 48.6584 46.187C48.6584 44.3032 50.1893 42.7723 52.073 42.7723C53.9568 42.7723 55.4877 44.3032 55.4877 46.187C55.4877 48.0707 53.9568 49.6016 52.073 49.6016Z" fill="white" fill-opacity="0.6"/>
    </g>
    <defs>
    <clipPath id="clip0_505_1566">
        <rect width="68.2927" height="68.2927" fill="white" transform="translate(0.853516 0.658447)"/>
    </clipPath>
    </defs>
</svg>