<svg width="44" height="44" viewBox="0 0 44 44" fill="none" xmlns="http://www.w3.org/2000/svg">
<g id="iconmonstr-user-20 1" clip-path="url(#clip0_778_722)">
<path id="Vector" d="M22 0C9.8505 0 0 9.8505 0 22C0 34.1495 9.8505 44 22 44C34.1495 44 44 34.1495 44 22C44 9.8505 34.1495 0 22 0ZM36.2138 33.5592C35.7353 32.4848 34.7673 31.7423 32.7837 31.284C28.5798 30.3142 24.6657 29.4635 26.5632 25.8848C32.329 14.9912 28.0903 9.16667 22 9.16667C15.7887 9.16667 11.6527 15.2148 17.4368 25.8848C19.3912 29.4855 15.3322 30.3343 11.2163 31.284C9.229 31.7423 8.26833 32.4903 7.7935 33.5683C5.21767 30.4095 3.66667 26.3835 3.66667 22C3.66667 11.891 11.891 3.66667 22 3.66667C32.109 3.66667 40.3333 11.891 40.3333 22C40.3333 26.3798 38.7842 30.4022 36.2138 33.5592Z" fill="black"/>
</g>
<defs>
<clipPath id="clip0_778_722">
<rect width="44" height="44" fill="white"/>
</clipPath>
</defs>
</svg>
