<svg width="60" height="60" viewBox="0 0 60 60" fill="none" xmlns="http://www.w3.org/2000/svg">
  <g clip-path="url(#clip0_790_751)">
    <path d="M28.75 28.75V22.5C33.125 22.5 35.7225 23.125 35.7225 25.625C35.7225 28.555 31.5125 28.75 28.75 28.75ZM28.75 31.2425V37.5C33.71 37.5 37.11 37.03 37.11 34.355C37.11 31.485 33.4375 31.2425 28.75 31.2425ZM60 30C60 46.5675 46.5675 60 30 60C13.4325 60 0 46.5675 0 30C0 13.4325 13.4325 0 30 0C46.5675 0 60 13.4325 60 30ZM42.5 33.98C42.5 30.7825 39.9025 29.395 38.0275 28.9175C39.57 28.36 41.3675 26.0725 40.6425 23.3475C40.03 21.0425 37.895 18.9975 32.5 18.815V15H30V18.75H28.75V15H26.25V18.75H20V22.5H22.0425C23.145 22.5 23.75 23.215 23.75 24.255V35.365C23.75 36.4375 23.1175 37.5 22.0125 37.5H20.665L20.04 41.2225H26.25V45H28.75V41.2225H30V45H32.5V41.25C39.14 41.25 42.5 38.3325 42.5 33.98Z" fill="white" fill-opacity="0.6"/>
  </g>
  <defs>
    <clipPath id="clip0_790_751">
      <rect width="60" height="60" fill="white"/>
    </clipPath>
  </defs>
</svg>