<svg width="60" height="60" viewBox="0 0 60 60" fill="none" xmlns="http://www.w3.org/2000/svg">
  <g clip-path="url(#clip0_529_255)">
    <path d="M30 0C21.725 0 14.2725 3.3825 8.8525 8.805L2.6525 2.605L0 20.9575L18.5925 18.5425L12.37 12.3225C16.89 7.8025 23.1175 5 30 5C43.785 5 55 16.215 55 30C55 43.785 43.785 55 30 55C20.32 55 11.9275 49.46 7.775 41.3925L3.4825 44.0075C8.5125 53.515 18.495 60 30 60C46.5675 60 60 46.5675 60 30C60 13.4325 46.5675 0 30 0Z" fill="white" fill-opacity="0.6"/>
  </g>
  <defs>
    <clipPath id="clip0_529_255">
      <rect width="60" height="60" fill="white"/>
    </clipPath>
  </defs>
</svg>