<svg width="60" height="60" viewBox="0 0 60 60" fill="none" xmlns="http://www.w3.org/2000/svg">
  <path d="M30 22.5C43.3625 22.5 55 17.4625 55 11.25C55 5.0375 43.3625 0 30 0C16.64 0 5 5.0375 5 11.25C5 17.4625 16.64 22.5 30 22.5ZM30.4675 12.4525C28.9725 12.0025 24.3975 11.6225 24.3975 9.0775C24.3975 7.6575 26.0675 6.3925 29.19 6.11V5H30.795V6.055C31.965 6.0825 33.2675 6.21 34.7175 6.505L34.1325 8.2175C33.03 7.965 31.8 7.72 30.5925 7.72L30.23 7.725C27.825 7.825 27.6275 9.16 29.2975 9.7225C32.0275 10.565 35.6275 11.185 35.6275 13.42C35.6275 15.205 33.46 16.1625 30.7925 16.4V17.5H29.1875V16.46C27.54 16.445 25.805 16.1775 24.375 15.7L25.1125 13.985C26.3325 14.2975 27.8675 14.6175 29.25 14.6175C29.6125 14.6175 29.96 14.595 30.2925 14.5475C32.135 14.2825 32.5025 13.0425 30.4675 12.4525ZM30 52.5C39.4575 52.5 49.27 50.0775 55 45.4925V48.75C55 54.9625 43.3625 60 30 60C16.64 60 5 54.9625 5 48.75V45.49C10.73 50.0775 20.5425 52.5 30 52.5ZM30 27.5C39.4575 27.5 49.27 25.0775 55 20.4925V23.75C55 29.9625 43.3625 35 30 35C16.64 35 5 29.9625 5 23.75V20.4925C10.73 25.0775 20.5425 27.5 30 27.5ZM30 40C39.4575 40 49.27 37.5775 55 32.9925V36.25C55 42.4625 43.3625 47.5 30 47.5C16.64 47.5 5 42.4625 5 36.25V32.99C10.73 37.5775 20.5425 40 30 40Z" fill="white" fill-opacity="0.6"/>
</svg>