<svg width="60" height="60" viewBox="0 0 60 60" fill="none" xmlns="http://www.w3.org/2000/svg">
  <path d="M21.255 12.5C20.6125 8.3125 21.355 3.595 24.3275 0H42.475C41.17 1.84 38.055 5.4375 38.9975 12.5H36.1125C35.745 9.16 36.2775 5.3675 37.5175 2.5H25.705C24.04 5.0075 23.4775 9.4625 24.0625 12.5H21.255ZM47.5 10V60H12.5V10H18.435V11.6875C18.435 13.5175 19.8925 15 21.69 15H38.3075C40.11 15 41.5675 13.5175 41.5675 11.6875V10H47.5ZM25 52.5H20V55H25V52.5ZM25 47.5H20V50H25V47.5ZM25 42.5H20V45H25V42.5ZM32.5 52.5H27.5V55H32.5V52.5ZM32.5 47.5H27.5V50H32.5V47.5ZM32.5 42.5H27.5V45H32.5V42.5ZM40 52.5H35V55H40V52.5ZM40 47.5H35V50H40V47.5ZM40 42.5H35V45H40V42.5ZM25 37.5H20V40H25V37.5ZM32.5 37.5H27.5V40H32.5V37.5ZM40 37.5H35V40H40V37.5ZM42.5 20H17.5V32.5H42.5V20Z" fill="black" fill-opacity="0.6"/>
</svg>