<svg width="60" height="60" viewBox="0 0 60 60" fill="none" xmlns="http://www.w3.org/2000/svg">
  <g clip-path="url(#clip0_529_312)">
    <path d="M49.66 10H22.085C22.41 8.345 22.9825 6.415 23.8175 5H14.8875C14.0825 6.285 13.4875 7.8925 13.145 10H10.34L3.5925 37.5H56.4075L49.66 10ZM14.09 32.5075H10.9225L11.42 30L14.5075 30.0075L14.09 32.5075ZM14.71 28.785L11.6625 28.775L12.1575 26.2675L15.1275 26.285L14.71 28.785ZM15.3525 24.95L12.425 24.93L12.92 22.4225L15.77 22.4475L15.3525 24.95ZM19.115 32.5075H15.95L16.32 30.0075L19.4075 30.015L19.115 32.5075ZM19.5525 28.8025L16.5025 28.7925L16.875 26.2925L19.845 26.31L19.5525 28.8025ZM20 24.98L17.0725 24.96L17.445 22.46L20.295 22.4875L20 24.98ZM20.3925 15.9225H14.645C14.14 12.5325 14.57 8.6575 15.78 6.4575H21.4025C20.135 9.025 20.0125 13.325 20.3925 15.9225ZM48.68 28.8925L45.63 28.8825L45.25 26.4475L48.22 26.4625L48.68 28.8925ZM47.9775 25.165L45.0475 25.145L44.67 22.7075L47.52 22.735L47.9775 25.165ZM24.875 15H45.965L46.955 20H24.415L24.875 15ZM31.6975 26.3725L31.7175 28.84L28.6675 28.83L28.725 26.3575L31.6975 26.3725ZM28.7575 25.0375L28.815 22.565L31.665 22.59L31.685 25.055L28.7575 25.0375ZM26.72 32.5075H23.555L23.7375 30.025L26.825 30.03L26.72 32.5075ZM26.875 28.825L23.825 28.815L24.0075 26.3325L26.9775 26.3475L26.875 28.825ZM27.035 25.025L24.1075 25.005L24.29 22.525L27.14 22.55L27.035 25.025ZM28.5825 32.5075L28.64 30.035L31.7275 30.04L31.7475 32.505H28.5825V32.5075ZM33.2325 22.605L36.0825 22.63L36.225 25.0875L33.2975 25.0675L33.2325 22.605ZM33.3325 26.3825L36.3025 26.3975L36.445 28.8525L33.3975 28.8425L33.3325 26.3825ZM33.49 32.5075L33.4275 30.045L36.515 30.05L36.6575 32.505H33.49V32.5075ZM40.2525 22.6675L43.1025 22.695L43.4375 25.135L40.51 25.115L40.2525 22.6675ZM40.645 26.42L43.615 26.435L43.9525 28.875L40.9025 28.865L40.645 26.42ZM41.0275 30.06L48.9 30.075L49.3575 32.505H41.285L41.0275 30.06ZM0 42.5V55H60V42.5H0ZM27.5 47.5H32.5V50H27.5V47.5Z" fill="black" fill-opacity="0.4"/>
  </g>
  <defs>
    <clipPath id="clip0_529_312">
      <rect width="60" height="60" fill="white"/>
    </clipPath>
  </defs>
</svg>