<svg width="60" height="60" viewBox="0 0 60 60" fill="none" xmlns="http://www.w3.org/2000/svg">
  <g clip-path="url(#clip0_518_380)">
    <path fill-rule="evenodd" clip-rule="evenodd" d="M29.885 27.4999C38.21 27.4999 47.5275 42.8074 48.965 49.2899C50.4025 55.7749 46.475 61.1124 40.255 59.5699C37.525 58.8924 32.125 56.3024 30 56.3424C27.6875 56.3824 24.0525 58.4324 21.0325 59.4724C14.39 61.7624 9.23996 56.2649 11.0075 49.2899C12.9425 41.6624 22.2075 27.4999 29.885 27.4999ZM56.8675 16.5249C59.8375 17.8724 60.94 23.5749 59.1025 29.6999C57.3425 35.5524 53.2775 39.2149 47.7125 36.6899C42.885 34.4974 42.3175 28.7449 45.4775 23.5149C48.6625 18.2474 53.895 15.1749 56.8675 16.5249ZM1.94746 18.2899C-0.662536 20.1124 -0.702536 25.7799 2.15246 31.3274C4.88246 36.6274 9.43497 39.4174 14.3225 36.0024C18.5625 33.0399 18.0825 27.4199 14.1175 22.9649C10.1275 18.4824 4.55746 16.4674 1.94746 18.2899ZM41.055 0.0598916C44.3625 0.687392 46.8575 6.12989 46.51 12.7149C46.175 19.0074 42.9975 23.6699 36.805 22.4949C31.4325 21.4774 29.46 15.8524 31.3525 9.84239C33.255 3.78989 37.75 -0.567608 41.055 0.0598916ZM15.3175 0.204892C12.1475 1.33239 10.5175 7.09489 11.875 13.5474C13.1725 19.7149 17.03 23.8324 22.9675 21.7199C28.1175 19.8899 29.2025 14.0274 26.41 8.37989C23.5975 2.68989 18.4875 -0.922608 15.3175 0.204892Z" fill="white" fill-opacity="0.6"/>
  </g>
  <defs>
    <clipPath id="clip0_518_380">
      <rect width="60" height="60" fill="white"/>
    </clipPath>
  </defs>
</svg>