<svg width="24" height="25" viewBox="0 0 24 25" fill="none" xmlns="http://www.w3.org/2000/svg">
  <path d="M8.011 6.49149C6.3 6.48249 4.151 7.40949 2.512 9.04849C1.887 9.67349 1.336 10.4035 0.911 11.2225C2.39 10.1035 3.968 9.75249 5.814 10.7885C6.358 9.35149 7.084 7.88849 8.011 6.49149ZM17.796 16.2645C16.28 17.2555 14.789 17.9705 13.499 18.4745C14.535 20.3225 14.185 21.8985 13.065 23.3765C13.884 22.9525 14.614 22.4015 15.24 21.7745C16.884 20.1325 17.812 17.9785 17.796 16.2645ZM23.948 0.318489C23.536 0.290489 23.132 0.276489 22.735 0.276489C14.133 0.276489 9.237 6.83449 7.455 12.1095L12.183 16.8385C17.611 14.8925 24 10.1775 24 1.66649C24 1.22749 23.983 0.778489 23.948 0.318489ZM14.06 10.2285C13.669 9.83749 13.669 9.20549 14.06 8.81449C14.451 8.42349 15.083 8.42349 15.474 8.81449C15.865 9.20549 15.865 9.83749 15.474 10.2285C15.083 10.6195 14.45 10.6185 14.06 10.2285ZM16.888 7.40049C16.107 6.62049 16.107 5.35349 16.888 4.57249C17.669 3.79149 18.936 3.79149 19.716 4.57249C20.497 5.35349 20.497 6.61949 19.716 7.40049C18.935 8.18149 17.669 8.18149 16.888 7.40049ZM1.969 19.8545L1.063 18.9485L6.271 13.7605L7.177 14.6665L1.969 19.8545ZM6.948 21.7115L6.042 20.8055L9.678 17.1415L10.584 18.0475L6.948 21.7115ZM0.906 24.2765L0 23.3705L6.448 16.9325L7.354 17.8385L0.906 24.2765Z" fill="#2E1E43"/>
</svg>