<svg width="60" height="60" viewBox="0 0 60 60" fill="none" xmlns="http://www.w3.org/2000/svg">
  <g clip-path="url(#clip0_529_261)">
    <path d="M27.5 60H5V30H27.5V60ZM27.5 15H0V25H27.5V15ZM32.5 60H55V30H32.5V60ZM32.5 15V25H60V15H32.5ZM43.4225 0C36.055 0 31.745 8.6925 30 12.5H43.3625C52.095 12.5 52.1875 0 43.4225 0ZM41.4325 9.0525H36.325C38.1725 6.25 39.9225 4.1375 42.18 4.1375C45.11 4.1375 45.25 9.0525 41.4325 9.0525ZM16.6375 12.5H30C28.255 8.6925 23.945 0 16.5775 0C7.8125 0 7.905 12.5 16.6375 12.5ZM17.82 4.1375C20.0775 4.1375 21.8275 6.25 23.675 9.0525H18.5675C14.75 9.0525 14.89 4.1375 17.82 4.1375Z" fill="black" fill-opacity="0.4"/>
  </g>
  <defs>
    <clipPath id="clip0_529_261">
      <rect width="60" height="60" fill="white"/>
    </clipPath>
  </defs>
</svg>