<svg width="25" height="25" viewBox="0 0 25 25" fill="none" xmlns="http://www.w3.org/2000/svg">
  <path d="M12.5002 0.5C17.0127 0.5 21.1437 3.03147 23.1923 7.0521C25.2409 11.0727 24.8608 15.9027 22.2084 19.5534L17.3543 16.0267C18.6805 14.2014 18.8706 11.7864 17.8463 9.77604C16.822 7.76572 14.7565 6.49999 12.5002 6.49999V0.5Z" fill="#AD94CD"/>
  <path d="M5.4469 22.2082C1.24106 19.1524 -0.518838 13.736 1.08765 8.79178C2.69414 3.84752 7.3016 0.5 12.5003 0.5V6.49999C9.90095 6.49999 7.59722 8.17375 6.79398 10.6459C5.99073 13.118 6.87068 15.8262 8.9736 17.3541L5.4469 22.2082Z" fill="#2E1E43"/>
  <path d="M22.2084 19.5534C20.3377 22.1282 17.5208 23.8544 14.3774 24.3523C11.234 24.8501 8.02155 24.0789 5.44678 22.2082L8.97348 17.3541C10.2609 18.2895 11.8671 18.6751 13.4388 18.4261C15.0105 18.1772 16.4189 17.3141 17.3543 16.0267L22.2084 19.5534Z" fill="#6E5195"/>
</svg>