<svg width="60" height="60" viewBox="0 0 60 60" fill="none" xmlns="http://www.w3.org/2000/svg">
  <path fill-rule="evenodd" clip-rule="evenodd" d="M42.6475 44.815L32.66 34.02C29.9925 31.35 32.56 28.365 39.01 27.72C39.01 27.72 35.44 25.9625 31.4625 25.9625C29.4425 25.9625 27.32 26.415 25.5025 27.7825C22.4425 30.085 23.07 31.9275 21.69 33.3075C20.4225 34.575 18.905 33.4925 18.905 33.4925L16.7175 35.68L22.9025 41.8625L25.0875 39.675C25.0875 39.675 24.185 38.12 25.18 37.1275C25.885 36.425 27.235 36.0975 28.3925 37.2575C28.88 37.7425 38.7625 48.14 38.7625 48.14C41.4575 50.835 44.67 46.835 42.6475 44.815ZM60 32.5025H52.5V57.5025H7.5V32.5025H0L30 2.5L60 32.5025ZM50 18.9425L42.5 11.4425V5.0025H50V18.9425Z" fill="white" fill-opacity="0.6"/>
</svg>