<svg width="60" height="58" viewBox="0 0 60 58" fill="none" xmlns="http://www.w3.org/2000/svg">
    <g clip-path="url(#clip0_505_1578)">
    <path fill-rule="evenodd" clip-rule="evenodd" d="M47.4461 42.5112C45.34 42.9404 43.1341 42.6781 41.1815 41.7409C38.8612 40.6298 37.0862 38.6625 36.2487 36.2684C34.3228 30.7721 32.8279 22.9961 31.4401 15.1963L45.2572 10.5536C48.9702 17.607 52.7733 24.6581 54.6724 30.0782C55.5099 32.4699 55.3443 35.0905 54.2098 37.3629C53.2553 39.2753 51.6801 40.811 49.7493 41.7362L52.7075 50.1822C53.4136 52.1232 55.9262 52.3903 58.5314 52.1113L59.1206 53.7924L47.6067 57.6625L46.9713 55.8526C49.1698 54.7128 51.0811 52.9578 50.4043 50.9572L47.4461 42.5112ZM10.0582 41.7362C8.12745 40.811 6.55218 39.2753 5.59776 37.3629C4.46317 35.0905 4.29761 32.4699 5.13516 30.0782C7.03425 24.6581 10.8373 17.607 14.5503 10.5536L28.3674 15.1963C26.9796 22.9961 25.4847 30.7721 23.5588 36.2684C22.7213 38.6625 20.9464 40.6298 18.626 41.7409C16.6734 42.6781 14.4675 42.9404 12.3615 42.5112L9.4276 50.8857C8.75074 52.8863 10.662 54.6413 12.8606 55.7811L12.2008 57.6625L0.68689 53.7924L1.30044 52.0398C3.90561 52.3211 6.41827 52.0517 7.12434 50.1131L10.0582 41.7362ZM46.3382 35.0094C47.3462 35.0094 48.1643 35.8106 48.1643 36.7978C48.1643 37.785 47.3462 38.5862 46.3382 38.5862C45.3303 38.5862 44.5122 37.785 44.5122 36.7978C44.5122 35.8106 45.3303 35.0094 46.3382 35.0094ZM9.81716 32.6249C10.8251 32.6249 11.6432 33.4261 11.6432 34.4133C11.6432 35.4005 10.8251 36.2017 9.81716 36.2017C8.80918 36.2017 7.99111 35.4005 7.99111 34.4133C7.99111 33.4261 8.80918 32.6249 9.81716 32.6249ZM15.904 29.0481C16.912 29.0481 17.7301 29.8493 17.7301 30.8365C17.7301 31.8237 16.912 32.6249 15.904 32.6249C14.896 32.6249 14.078 31.8237 14.078 30.8365C14.078 29.8493 14.896 29.0481 15.904 29.0481ZM44.5122 28.7929C45.5202 28.7929 46.3382 29.5941 46.3382 30.5813C46.3382 31.5685 45.5202 32.3697 44.5122 32.3697C43.5042 32.3697 42.6861 31.5685 42.6861 30.5813C42.6861 29.5941 43.5042 28.7929 44.5122 28.7929ZM49.2331 24.279C47.6189 20.6426 45.7247 17.0967 43.9303 13.5199L34.3934 16.7248C34.9145 19.25 35.3917 21.7824 35.9419 24.279H49.2331ZM23.8656 24.279C24.4159 21.7824 24.8931 19.25 25.4141 16.7248L15.8772 13.5199C14.0828 17.0967 12.1886 20.6426 10.5744 24.279H23.8656ZM35.8323 9.93598L39.8302 3.28312C40.1735 2.7156 39.9787 1.98354 39.3992 1.64971C38.8198 1.31826 38.0747 1.50187 37.7339 2.07177L33.7336 8.72463C33.3927 9.29215 33.5875 10.0242 34.1646 10.358C34.3593 10.4701 34.5712 10.5226 34.783 10.5226C35.1993 10.5226 35.6059 10.3127 35.8323 9.93598ZM24.7494 10.5226C24.3331 10.5226 23.9289 10.3127 23.7 9.93598L19.6998 3.28312C19.3589 2.7156 19.5512 1.98354 20.1307 1.64971C20.7102 1.31587 21.4552 1.50425 21.7985 2.07177L25.7988 8.72463C26.1397 9.29215 25.9473 10.0242 25.3678 10.358C25.1731 10.4701 24.9612 10.5226 24.7494 10.5226ZM31.1309 8.83432V1.62586C31.1309 0.965346 30.5855 0.433594 29.9135 0.433594C29.2415 0.433594 28.6961 0.965346 28.6961 1.62586V8.83432C28.6961 9.49245 29.2415 10.0266 29.9135 10.0266C30.5855 10.0266 31.1309 9.49245 31.1309 8.83432Z" fill="black" fill-opacity="0.4"/>
    </g>
    <defs>
    <clipPath id="clip0_505_1578">
        <rect width="58.4337" height="57.2289" fill="white" transform="translate(0.68689 0.433594)"/>
    </clipPath>
    </defs>
</svg>