<svg width="60" height="60" viewBox="0 0 60 60" fill="none" xmlns="http://www.w3.org/2000/svg">
    <path d="M25 51.25C25 53.3225 23.32 55 21.25 55C19.18 55 17.5 53.3225 17.5 51.25C17.5 49.18 19.18 47.5 21.25 47.5C23.32 47.5 25 49.18 25 51.25ZM33.75 47.5C31.68 47.5 30 49.1775 30 51.25C30 53.3225 31.68 55 33.75 55C35.82 55 37.5 53.3225 37.5 51.25C37.5 49.18 35.82 47.5 33.75 47.5ZM49.51 5L40.9325 40H35.6775L42.03 12.5H0L11.5375 45H44.635L53.32 10H58.765L60 5H49.51Z" fill="black" fill-opacity="0.4"/>
</svg>