<svg width="60" height="60" viewBox="0 0 60 60" fill="none" xmlns="http://www.w3.org/2000/svg">
  <path d="M30 5.25651H21.3395L23.6951 3.10971C24.4573 2.41515 24.4573 1.21547 23.6951 0.520916C22.933 -0.173639 21.6166 -0.173639 20.8545 0.520916L15.1039 5.76164C14.7575 6.07735 14.4804 6.58248 14.4804 7.08761C14.4804 7.59274 14.6882 8.03473 15.1039 8.41358L20.8545 13.6543C21.2702 14.0331 21.7552 14.2226 22.3095 14.2226C22.7945 14.2226 23.3487 14.0331 23.7644 13.6543C24.5266 12.9597 24.5266 11.7601 23.7644 11.0655L21.4088 8.91871H30C44.3418 8.91871 55.9815 19.5264 55.9815 32.5967C55.9815 45.6669 44.3418 56.3378 30 56.3378C15.6582 56.3378 4.01848 45.7301 4.01848 32.6598C4.01848 26.03 6.92841 19.9053 12.2633 15.3591C13.0947 14.6646 13.0947 13.528 12.3326 12.7703C11.5704 12.0126 10.3233 12.0126 9.49192 12.7072C3.4642 17.8216 0 25.0829 0 32.6598C0 47.7506 13.4411 60 30 60C46.5589 60 60 47.7506 60 32.6598C60 17.5691 46.5589 5.25651 30 5.25651Z" fill="black" fill-opacity="0.4"/>
  <path d="M30 48.7611C39.769 48.7611 47.6674 41.563 47.6674 32.6601C47.6674 23.7572 39.769 16.5591 30 16.5591C20.2309 16.5591 12.3325 23.7572 12.3325 32.6601C12.3325 41.4999 20.2309 48.7611 30 48.7611ZM22.3787 30.6396C23.3487 29.7556 24.9422 29.7556 25.9122 30.6396L28.3371 32.8495L34.157 27.5457C35.127 26.6617 36.7205 26.6617 37.6905 27.5457C38.6605 28.4296 38.6605 29.8819 37.6905 30.7659L30.0692 37.7114C29.5842 38.1534 28.9607 38.3428 28.3371 38.3428C27.7136 38.3428 27.09 38.1534 26.605 37.7114L22.3787 33.8598C21.4087 32.9758 21.4087 31.5236 22.3787 30.6396Z" fill="black" fill-opacity="0.4"/>
</svg>