<svg width="19" height="20" viewBox="0 0 19 20" fill="none" xmlns="http://www.w3.org/2000/svg">
  <path d="M1.01501 3.494H0.762015C0.349015 3.494 0.0150146 3.159 0.0150146 2.747C0.0150146 2.335 0.349015 2 0.762015 2H6.01501V1C6.01501 0.465 6.48901 0 7.01501 0H11.015C11.541 0 12.015 0.465 12.015 1V2H17.269C17.681 2 18.015 2.335 18.015 2.747C18.015 3.159 17.681 3.494 17.269 3.494H17.015V18.929C17.015 19.52 16.567 20 16.015 20C13.142 20 4.88801 20 2.01501 20C1.46301 20 1.01501 19.52 1.01501 18.929V3.494ZM15.515 3.494H2.51501V18.5H15.515V3.494ZM11.265 6C10.851 6 10.515 6.336 10.515 6.75V15.25C10.515 15.664 10.851 16 11.265 16C11.679 16 12.015 15.664 12.015 15.25V6.75C12.015 6.336 11.679 6 11.265 6ZM6.76501 6C6.35101 6 6.01501 6.336 6.01501 6.75V15.25C6.01501 15.664 6.35101 16 6.76501 16C7.17901 16 7.51501 15.664 7.51501 15.25V6.75C7.51501 6.336 7.17901 6 6.76501 6ZM10.515 2V1.5H7.51501V2H10.515Z" fill="#1C1B1F"/>
</svg>