<svg width="60" height="63" viewBox="0 0 60 63" fill="none" xmlns="http://www.w3.org/2000/svg">
  <g clip-path="url(#clip0_529_257)">
    <path d="M47.5 42.5638C47.5 31.3751 36.3375 28.2603 27.7825 24.0655C22.585 21.2507 23.2425 14.5229 30.6875 14.069C34.8175 13.8081 39.065 15.0864 42.9025 16.4925L44.7125 7.89682C40.1775 6.45943 36.12 5.80204 32.5 5.70291V0.391602H27.5V5.95856C17.775 7.35421 12.58 13.7194 12.58 20.8281C12.58 33.5481 26.8125 35.489 31.47 37.7507C37.82 40.7142 36.645 46.8812 30.8975 48.2403C25.915 49.4168 19.5525 47.3612 14.7725 45.4255L12.5 54.0029C16.9675 56.4107 22.3275 57.6994 27.5 57.7933V63.0003H32.5V57.509C40.7825 56.2986 47.5125 51.5273 47.5 42.5638Z" fill="white" fill-opacity="0.6"/>
  </g>
  <defs>
    <clipPath id="clip0_529_257">
      <rect width="60" height="62.6087" fill="white" transform="translate(0 0.391602)"/>
    </clipPath>
  </defs>
</svg>