<svg width="60" height="60" viewBox="0 0 60 60" fill="none" xmlns="http://www.w3.org/2000/svg">
  <g clip-path="url(#clip0_790_743)">
    <path d="M30 0C13.4325 0 0 13.4325 0 30C0 46.5675 13.4325 60 30 60C46.5675 60 60 46.5675 60 30C60 13.4325 46.5675 0 30 0ZM32.5 42.3675V45H30V42.505C27.4125 42.46 24.735 41.8425 22.5 40.6875L23.6375 36.5775C26.0275 37.505 29.21 38.49 31.7 37.9275C34.5725 37.2775 35.16 34.3225 31.985 32.9C29.6575 31.815 22.54 30.8875 22.54 24.7925C22.54 21.385 25.1375 18.335 30 17.6675V15H32.5V17.545C34.31 17.5925 36.34 17.9075 38.605 18.595L37.7 22.7125C35.78 22.0375 33.6575 21.425 31.5925 21.55C27.87 21.7675 27.5425 24.99 30.14 26.34C34.42 28.3525 40 29.845 40 35.2075C40.005 39.5025 36.6425 41.7875 32.5 42.3675Z" fill="black" fill-opacity="0.4"/>
  </g>
  <defs>
    <clipPath id="clip0_790_743">
      <rect width="60" height="60" fill="white"/>
    </clipPath>
  </defs>
</svg>