<svg width="60" height="60" viewBox="0 0 60 60" fill="none" xmlns="http://www.w3.org/2000/svg">
    <path fill-rule="evenodd" clip-rule="evenodd" d="M18.72 60C18.055 60 17.5 59.46 17.5 58.7825V57.5C14.74 57.5 12.5 55.26 12.5 52.5V20C12.5 17.24 14.74 15 17.5 15H22.5V2.5C22.5 1.12 23.62 0 25 0H35C36.38 0 37.5 1.12 37.5 2.5V15H42.5C45.2625 15 47.5 17.24 47.5 20V52.5C47.5 55.26 45.2625 57.5 42.5 57.5V58.72C42.5 59.4275 41.93 60 41.22 60H41.2175C40.555 60 40 59.465 40 58.7825V57.5H20V58.72C20 59.4275 19.4275 60 18.72 60ZM41.25 27.5C41.9425 27.5 42.5 26.94 42.5 26.25C42.5 25.56 41.9425 25 41.25 25H18.75C18.06 25 17.5 25.56 17.5 26.25C17.5 26.94 18.06 27.5 18.75 27.5H20.0175C19.8375 30.0925 20.99 32.34 22.5075 33.38L22.5 37.07L31.3225 45.9275L38.4075 38.87L29.585 30.015L26.3625 30.0075C26.0525 29.0975 25.525 28.205 24.9175 27.5H41.25ZM29.1225 35.6775L33.675 40.23L32.79 41.1125L28.2375 36.5625L29.1225 35.6775ZM30.83 40.0375L29.9475 40.9225L26.9125 37.8875L27.7975 37.005L30.83 40.0375ZM30.4475 34.3525L35 38.905L34.115 39.7875L29.565 35.235L30.4475 34.3525ZM26.5175 32.5375C26.2625 33.245 25.69 33.6925 25.0025 33.885C25.1075 34.925 26.38 35.385 27.1275 34.6425C27.825 33.9525 27.4825 32.7575 26.5175 32.5375ZM23.115 27.5C23.95 28.1425 24.65 29.095 25.0225 30.005L22.515 30L22.5125 31.705L22.4675 31.65C21.6375 30.6475 21.145 29.175 21.275 27.5H23.115ZM33.75 5H26.25C25.56 5 25 5.56 25 6.25V15H35V6.25C35 5.56 34.44 5 33.75 5Z" fill="black" fill-opacity="0.4"/>
</svg>