<svg width="80" height="80" viewBox="0 0 80 80" fill="none" xmlns="http://www.w3.org/2000/svg">
<circle cx="40" cy="40" r="40" fill="#2E1E43"/>
<path fill-rule="evenodd" clip-rule="evenodd" d="M37.7201 61.4631C37.7201 63.12 39.0633 64.4631 40.7201 64.4631C42.377 64.4631 43.7201 63.12 43.7201 61.4631V43.7426H61.4631C63.12 43.7426 64.4631 42.3995 64.4631 40.7426C64.4631 39.0858 63.12 37.7426 61.4631 37.7426H43.7201V20C43.7201 18.3431 42.377 17 40.7201 17C39.0633 17 37.7201 18.3431 37.7201 20V37.7426H20C18.3431 37.7426 17 39.0858 17 40.7426C17 42.3995 18.3431 43.7426 20 43.7426H37.7201V61.4631Z" fill="#D1D3F1"/>
</svg> 